<svg width="945" height="495" viewBox="0 0 945 495" fill="none" xmlns="http://www.w3.org/2000/svg">
<g clip-path="url(#clip0_16_341)">
<rect width="945" height="495" fill="white"/>
<path d="M0 0H945V495H0V0Z" fill="white"/>
<path d="M0 0H945V495H0V0Z" fill="#F8F8F8"/>
<path d="M104.374 39.5132C62.6245 38.6084 17.3957 51.9543 0 58.7403V495H945V39.5132C801.579 39.5132 755.399 117.176 621.74 64.0183C488.081 10.861 428.385 48.9382 381.079 70.0503C333.772 91.1624 287.968 88.1464 247.795 82.1144C207.622 76.0823 156.561 40.6442 104.374 39.5132Z" fill="#E3E3E3"/>
<path d="M531.308 -56.286L530.431 124.631C531.261 144.911 515.026 162.104 494.245 162.954C494.941 179.99 494.941 179.99 494.941 179.99C525.349 178.746 549.105 153.591 547.892 123.917L548.768 -57L539.09 -56.6043L531.308 -56.286Z" fill="#FF7059"/>
<path d="M614.412 441.627L285.619 361.837C269.261 357.867 259.219 341.389 263.188 325.031L308.669 137.619C312.638 121.26 329.117 111.218 345.475 115.188L674.268 194.978C690.627 198.948 700.669 215.426 696.699 231.784L651.219 419.196C647.249 435.555 630.771 445.597 614.412 441.627Z" fill="#3D3D3D"/>
<path d="M693.9 243.322L305.869 149.157L308.669 137.619C312.639 121.26 329.117 111.218 345.476 115.188L674.269 194.978C690.627 198.948 700.669 215.426 696.7 231.784L693.9 243.322Z" fill="black"/>
<rect width="105.945" height="105.945" rx="19.1219" transform="matrix(-0.971794 -0.235831 -0.235831 0.971794 436.147 231.692)" fill="black"/>
<path d="M348.137 280.112C346.797 281.358 345.862 282.97 345.43 284.751L344.533 288.406C343.528 292.501 346.04 296.635 350.138 297.629L380.517 305.001C384.618 305.996 388.746 303.471 389.728 299.368L390.602 295.713C390.968 294.206 390.831 291.798 390.304 290.342L387.237 281.909C386.294 279.322 383.362 276.694 380.694 276.046L363.258 271.815C360.58 271.165 356.771 272.158 354.746 274.025L348.137 280.112Z" fill="white"/>
<circle cx="377.576" cy="250.9" r="15.1814" transform="rotate(13.6406 377.576 250.9)" fill="white"/>
<rect width="177.296" height="28.1079" rx="14.0539" transform="matrix(-0.971794 -0.235831 -0.235831 0.971794 641.102 294.779)" fill="black"/>
<rect width="177.296" height="28.1079" rx="14.0539" transform="matrix(-0.971794 -0.235831 -0.235831 0.971794 629.884 341.004)" fill="black"/>
<circle cx="341.527" cy="135.584" r="6.48643" transform="rotate(13.6406 341.527 135.584)" fill="#E3E3E3"/>
<circle cx="362.539" cy="140.684" r="6.48643" transform="rotate(13.6406 362.539 140.684)" fill="#E3E3E3"/>
<circle cx="383.55" cy="145.783" r="6.48643" transform="rotate(13.6406 383.55 145.783)" fill="#E3E3E3"/>
<path d="M491.002 180.151L490.307 163.161C469.821 163.999 452.48 148.224 451.652 128L451.334 120.216L434.126 120.92L434.444 128.703C435.654 158.297 461.026 181.376 491.002 180.151Z" fill="#FF7059"/>
<path d="M440.926 85.598C441.504 84.4242 443.178 84.4242 443.756 85.598L461.025 120.666C461.541 121.714 460.778 122.94 459.61 122.94H425.072C423.904 122.94 423.141 121.714 423.657 120.666L440.926 85.598Z" fill="#FF7059"/>
<path d="M497.544 169.225C498.846 173.608 496.461 178.595 492.078 179.898C487.695 181.201 482.973 178.325 481.671 173.942C480.368 169.559 483.621 164.725 488.004 163.422C492.388 162.12 496.241 164.842 497.544 169.225Z" fill="#FF7059"/>
<path d="M117.437 252H-69.1883C-78.4733 252 -86 244.473 -86 235.188L-86 128.812C-86 119.527 -78.4733 112 -69.1883 112H117.437C126.722 112 134.249 119.527 134.249 128.812V235.188C134.249 244.473 126.722 252 117.437 252Z" fill="#BCA4EA"/>
<path d="M134.249 135.361H-86L-86 128.812C-86 119.527 -78.4733 112 -69.1883 112H117.437C126.722 112 134.249 119.527 134.249 128.812L134.249 135.361Z" fill="#DCC6FF"/>
<rect width="97.7959" height="15.5042" rx="7.75212" transform="matrix(-1 0 0 1 112.641 169.812)" fill="#DCC6FF"/>
<rect width="97.7959" height="15.5042" rx="7.75212" transform="matrix(-1 0 0 1 112.642 196.05)" fill="#DCC6FF"/>
<path d="M905.74 488.581L725.474 536.883C716.505 539.286 707.287 533.964 704.883 524.996L677.351 422.244C674.948 413.275 680.27 404.057 689.239 401.654L869.505 353.351C878.474 350.948 887.692 356.271 890.095 365.239L917.628 467.991C920.031 476.96 914.709 486.178 905.74 488.581Z" fill="#BCA4EA"/>
<path d="M891.79 371.565L679.046 428.57L677.351 422.244C674.948 413.275 680.27 404.057 689.239 401.654L869.505 353.351C878.474 350.948 887.692 356.271 890.095 365.239L891.79 371.565Z" fill="#DCC6FF"/>
<rect width="58.439" height="58.439" rx="15.447" transform="matrix(-0.965926 0.258819 0.258819 0.965926 763.936 434.082)" fill="#DCC6FF"/>
<path d="M734.131 480.79C733.812 481.748 733.785 482.776 734.047 483.752L734.077 483.866C734.951 487.159 738.332 489.117 741.622 488.235L754.495 484.786C757.787 483.904 759.736 480.515 758.843 477.226L758.813 477.116C758.592 476.29 757.889 475.16 757.249 474.594L753.535 471.323C752.394 470.32 750.28 469.823 748.817 470.215L739.258 472.776C737.79 473.17 736.208 474.658 735.721 476.096L734.131 480.79Z" fill="white"/>
<circle cx="740.659" cy="458.865" r="8.37402" transform="rotate(-15 740.659 458.865)" fill="white"/>
<rect width="97.7959" height="15.5042" rx="7.75212" transform="matrix(-0.965926 0.258819 0.258819 0.965926 879.835 410.435)" fill="#DCC6FF"/>
<rect width="97.7959" height="15.5042" rx="7.75212" transform="matrix(-0.965926 0.258819 0.258819 0.965926 886.626 435.778)" fill="#DCC6FF"/>
<circle cx="692.72" cy="412.571" r="3.5779" transform="rotate(-15 692.72 412.571)" fill="white"/>
<circle cx="704.24" cy="409.485" r="3.5779" transform="rotate(-15 704.24 409.485)" fill="white"/>
<circle cx="715.76" cy="406.398" r="3.5779" transform="rotate(-15 715.76 406.398)" fill="white"/>
<path d="M1047.83 347.665L751.678 268.311C736.944 264.363 728.2 249.219 732.148 234.485L777.38 65.6782C781.328 50.944 796.472 42.2004 811.206 46.1484L1107.36 125.502C1122.09 129.45 1130.84 144.594 1126.89 159.329L1081.66 328.135C1077.71 342.869 1062.56 351.613 1047.83 347.665Z" fill="#FFBD6E"/>
<path d="M1124.1 169.721L774.595 76.0708L777.38 65.6782C781.328 50.944 796.472 42.2004 811.206 46.1484L1107.36 125.502C1122.09 129.45 1130.84 144.594 1126.89 159.329L1124.1 169.721Z" fill="#E59A48"/>
<rect width="96.007" height="96.007" rx="24.25" transform="matrix(-0.965926 -0.258819 -0.258819 0.965926 890.845 153.643)" fill="#E59A48"/>
<path d="M810.072 195.616C808.831 196.717 807.949 198.157 807.52 199.761L807.351 200.383C805.954 205.545 809.014 210.86 814.18 212.245L836.198 218.144C841.366 219.529 846.676 216.452 848.044 211.279L848.207 210.663C848.571 209.306 848.499 207.121 848.053 205.79L845.456 198.085C844.657 195.721 842.057 193.277 839.654 192.633L823.949 188.425C821.537 187.779 818.065 188.596 816.19 190.244L810.072 195.616Z" fill="white"/>
<circle cx="837.37" cy="169.785" r="13.7573" transform="rotate(15 837.37 169.785)" fill="white"/>
<rect width="160.665" height="25.4712" rx="12.7356" transform="matrix(-0.965926 -0.258819 -0.258819 0.965926 1075.17 215.204)" fill="#E59A48"/>
<rect width="160.665" height="25.4712" rx="12.7356" transform="matrix(-0.965926 -0.258819 -0.258819 0.965926 1064.01 256.84)" fill="#E59A48"/>
<circle cx="807.191" cy="64.5419" r="5.87798" transform="rotate(15 807.191 64.5419)" fill="white"/>
<circle cx="826.117" cy="69.613" r="5.87798" transform="rotate(15 826.117 69.613)" fill="white"/>
<circle cx="845.042" cy="74.684" r="5.87798" transform="rotate(15 845.042 74.684)" fill="white"/>
<path d="M250.358 537.311L-45.7935 616.665C-60.5276 620.613 -75.672 611.869 -79.62 597.135L-124.852 428.329C-128.8 413.594 -120.056 398.45 -105.322 394.502L190.83 315.148C205.564 311.2 220.709 319.944 224.657 334.678L269.888 503.485C273.836 518.219 265.093 533.363 250.358 537.311Z" fill="#FFBD6E"/>
<path d="M227.441 345.071L-122.067 438.721L-124.852 428.329C-128.8 413.594 -120.056 398.45 -105.322 394.502L190.83 315.148C205.564 311.2 220.709 319.944 224.657 334.678L227.441 345.071Z" fill="#E59A48"/>
<rect width="96.007" height="96.007" rx="24.25" transform="matrix(-0.965926 0.258819 0.258819 0.965926 17.395 447.776)" fill="#E59A48"/>
<rect width="160.665" height="25.4712" rx="12.7356" transform="matrix(-0.965926 0.258819 0.258819 0.965926 207.801 408.928)" fill="#E59A48"/>
<rect width="160.665" height="25.4712" rx="12.7356" transform="matrix(-0.965926 0.258819 0.258819 0.965926 218.958 450.565)" fill="#E59A48"/>
</g>
<defs>
<clipPath id="clip0_16_341">
<rect width="945" height="495" fill="white"/>
</clipPath>
</defs>
</svg>
